<svg id="图层_1" data-name="图层 1" xmlns="http://www.w3.org/2000/svg" viewBox="0 0 8.93 11.44"><defs><style>.cls-1{fill:#3a6db5;}</style></defs><title>登录页icons</title><path class="cls-1" d="M8.59,11.44H.34A.34.34,0,0,1,0,11.1V8.72A4.05,4.05,0,0,1,2.66,5,2.75,2.75,0,0,1,1.55,2.79,2.85,2.85,0,0,1,4.46,0,2.85,2.85,0,0,1,7.38,2.79,2.75,2.75,0,0,1,6.26,5,4.05,4.05,0,0,1,8.93,8.72V11.1A.34.34,0,0,1,8.59,11.44ZM.67,10.76H8.25v-2A3.43,3.43,0,0,0,5.32,5.41a.34.34,0,0,1-.06-.65,2.1,2.1,0,0,0,1.44-2A2.18,2.18,0,0,0,4.46.67,2.18,2.18,0,0,0,2.23,2.79a2.1,2.1,0,0,0,1.44,2,.34.34,0,0,1-.06.65A3.43,3.43,0,0,0,.67,8.72Z"/></svg>