<svg id="图层_1" data-name="图层 1" xmlns="http://www.w3.org/2000/svg" viewBox="0 0 8.96 11.57"><defs><style>.cls-1{fill:#3a6db5;}</style></defs><title>登录页icons</title><path class="cls-1" d="M7.81,11.57H1.15A1.15,1.15,0,0,1,0,10.42V5.82A1.15,1.15,0,0,1,1.15,4.67H7.81A1.15,1.15,0,0,1,9,5.82v4.6A1.15,1.15,0,0,1,7.81,11.57ZM1.15,5.37a.45.45,0,0,0-.45.45v4.6a.45.45,0,0,0,.45.45H7.81a.45.45,0,0,0,.45-.45V5.82a.45.45,0,0,0-.45-.45Z"/><path class="cls-1" d="M2,5.37A.35.35,0,0,1,1.63,5V2.37C1.63.74,3.09,0,4.44,0A3.35,3.35,0,0,1,6.38.58a2.16,2.16,0,0,1,.94,1.8V3.5a.35.35,0,0,1-.7,0V2.37C6.62,1.23,5.49.7,4.44.7s-2.11.52-2.11,1.67V5A.35.35,0,0,1,2,5.37Z"/><path class="cls-1" d="M4.48,7a.57.57,0,1,1-.57.57A.57.57,0,0,1,4.48,7m0-.59A1.16,1.16,0,1,0,5.63,7.62,1.15,1.15,0,0,0,4.48,6.46Z"/><path class="cls-1" d="M4.48,10.13a.35.35,0,0,1-.35-.35V8.6a.35.35,0,0,1,.7,0V9.78A.35.35,0,0,1,4.48,10.13Z"/></svg>